<?xml version="1.0" encoding="utf-8"?>
<!-- Generator: Adobe Illustrator 16.0.0, SVG Export Plug-In . SVG Version: 6.00 Build 0)  -->
<!DOCTYPE svg PUBLIC "-//W3C//DTD SVG 1.1//EN" "http://www.w3.org/Graphics/SVG/1.1/DTD/svg11.dtd">
<svg version="1.1" id="sherlock_holmes" xmlns="http://www.w3.org/2000/svg" xmlns:xlink="http://www.w3.org/1999/xlink" x="0px"
	 y="0px" width="245px" height="201.667px" viewBox="0 0 245 201.667" enable-background="new 0 0 245 201.667"
	 xml:space="preserve" fill="white">
<path id="path_outline" d="M244.138,141.569c-1.32,4.952-5.196,0.892-7.715,3.682c-3.271,3.618-4.143,7.543-6.576,11.537
	c-2.743,4.5-5.397,9.062-8.622,13.241c-5.048,6.536-14.14,9.558-22.495,8.59c-4.783-0.555-9.329-2.416-12.739-5.682
	c-11.369-10.887-13.984-35.25-32.283-37.864c-12.389-1.77-1.944,8.705-1.538,13.366c0.72,8.25-9.435,11.172-12.469,10.953
	c-3.033-0.218-8.989-2.377-13.935-3.981c-1.787-0.577-17.216-5.674-18.913-3.98s2.43,4.245,4.698,5.862
	c2.36,1.688,5.081,2.73,7.778,3.804c2.453,0.974,7.19,0.835,9.118,2.32c7.385,5.691-11.214,8.009-11.641,10.907
	c-0.426,2.898,5.111,4.639,8.039,6.497c4.579,2.908,8.643,5.061,12.634,8.471c3.807,3.249,5.728,6.461,8.92,10.323
	c-3.446,0.627-6.457,1.086-10.158,1.05c-6.592-0.066-13.04-0.746-19.705-0.994c-12.03-0.452-26.291-7.13-35.359-14.852
	c-12.542-10.677-28.79-23.014-45.986-22.465c-8.817,0.283-16.331,5.843-25.063,5.308c-3.212-0.197-9.478-0.854-8.144-5.285
	c1.089-3.618,8.428-3.641,10.739-4.301c2.311-0.66,4.526-2.486,5.563-4.678c1.04-2.192,2.536-10.779,7.062-14.44
	c3.183-2.574,7.956-1.66,10.828-3.681c1.38-0.974,2.595-3.807,3.288-5.262c3.757-7.903,9.903-5.282,13.865-8.584
	c3.961-3.301-0.792-14.383-6.233-14.515c-2.681,0.98-4.992,2.631-7.639,5.991c-1.482-3.915-1.162-7.952-0.323-11.614
	c5.942-14.525,11.284-21.527,8.986-34.247c-2.143-11.868-3.681-24.789,2.04-35.943c5.127-10.003,15.139-16.081,25.68-19.075
	c-0.267-0.248-0.518-0.459-0.663-0.604c-0.568-0.562-1.242-1.453-1.964-1.816c-0.848-0.426-1.99-0.26-2.882-0.584
	c-0.842-0.307-1.066-1.347-1.815-1.816c-1.117-0.699-2.696-0.932-3.556-2.057c-0.171-0.225,1.073-1.291,1.169-1.168
	c0.774,1.013,1.833,1.949,2.964,2.235c0.903,0.228,1.855-0.152,2.724,0.165c1.319,0.481,2.283,1.751,3.344,2.737
	c0.818,0.763,1.723,1.548,2.446,2.433c0.228-0.056,0.459-0.113,0.69-0.166c-0.472-1.324-0.475-2.753,0.333-3.875
	c0.664-0.92,0.957-1.658,2.017-2.119c0.822-0.358,1.981,0.165,2.311-0.908c0.33-1.073,1.704-0.494,2.046-0.842
	c0.376-0.383,0.656-0.846,0.796-1.436c0.099-0.413,0.079-1.251,0.452-1.525c0.234-0.172,1.284,1.083,1.169,1.168
	c-0.697,0.508-0.419,2.156-1.129,2.872c-1.106,1.116-1.872,1.235-3.251,1.908c-0.552,0.268-1.077,1.851-1.568,2.229
	c-0.536,0.412-1.861-0.047-2.027,0.663c-0.089,0.396-0.165,1.004-0.158,1.645c10.911-2.328,24.809-1.69,33.464,5.615
	c9.085,7.668,9.735,19.811,15.255,29.833c5.609,10.191,15.024,15.862,24.317,22.253c-4.038,1.123-8.573,0.618-12.452,2.44
	c-0.317,4.529,4.803,13.456,7.246,17.153c3.356,5.077,8.586,7.414,12.445,12.284c2.106,2.657,4.586,6.048,2.65,9.405
	c-3.148,1.69-6.216,1.509-9.299,2.737c-3.836,1.528-3.417,4.638-3.694,8.372c-0.37,5.011-0.109,5.813,4.797,6.675
	c7.866,1.377,13.971,4.991,20.58,9.412c4.915,3.291,7.804,9.124,12.531,12.164c6.167,3.969,8.325-5.317,7.698-10.071
	c1.116-8.104-5.104-8.88-2.235-12.825c3.011-4.144,14.474-1.066,14.474-1.066l18.654,5.206
	C225.717,130.754,245.459,136.618,244.138,141.569z"/>
</svg>
